<?xml version="1.0" encoding="utf-8"?>
<!-- Generator: Adobe Illustrator 24.0.2, SVG Export Plug-In . SVG Version: 6.00 Build 0)  -->
<svg width="40px" version="1.1" id="Layer_1" xmlns="http://www.w3.org/2000/svg" xmlns:xlink="http://www.w3.org/1999/xlink" x="0px" y="0px"
	 viewBox="0 0 512 512" style="enable-background:new 0 0 512 512;" xml:space="preserve">
<style type="text/css">
	.st0{fill:#FF6E6E;}
</style>
<g>
	<path d="M357.8,217.3c-11.9-11.7-30.2-11.7-42.5,0c-3.4,3.2-6.6,6.5-9.9,9.8c-0.3,0.3-0.7,0.3-1.2,0.6c-0.8-0.8-1.5-1.6-2.3-2.5
		c8.1-8.1,11.7-17.7,8.1-28.5c-1.7-5.2-1.4-9.7-0.3-14.6c0.4-1.6,0.7-3.3,1.1-4.9c2.6-12.4-0.1-23.5-8.2-33.1
		c-8-9.4-16.2-18.7-24.3-28c-8.1-9.3-18.3-13.7-30.5-13.4c-32,0.6-64.1,1.3-96.1,1.8c-2.8,0-5.9-0.6-8.4-1.9
		c-26.3-12.9-52.5-26.1-78.8-39.1c-6.8-3.4-11.3-0.5-11.3,7.1c0,32.5,0,64.9-0.1,97.4c0,4.6,1.8,7.2,6,9
		c12.2,5.3,24.1,11.4,36.5,16.3c9.9,3.9,17.3,10,23.9,18.3c14.8,18.7,34.7,28.5,58.5,30c1.2,0.1,2.8,0.7,3.4,1.6
		c6.8,10,16.1,12.9,27.6,10.5c1.8-0.4,4.3-0.8,5.7,0c6.9,4,14,3.5,21.2,1.7c6-1.5,10.1-0.9,15,4.5c15.3,16.8,31.9,32.5,48,48.5
		c3.8,3.7,7.3,3.8,11,0.1c16.2-16.2,32.6-32.2,48.5-48.7C370.2,247.7,369.6,229,357.8,217.3z M194.9,241.4c0-0.3-0.1-0.7-0.1-1
		c2.1-0.8,6.5-2.7,9.2-3.7c0.4,1.4,0.6,2.4,1.1,4.1C202.1,240.6,197.4,241.6,194.9,241.4z M241.6,240.6c-4.6,0.8-9.2,1.7-13.9,2.4
		c-4.6,0.7-8.2-1.7-9.4-5.9c-1.2-4.2,0.2-7.8,4.6-9.5c2.8-1.1,6.1-1.3,9.2-1.6c1.9-0.2,3.9,0.3,5.8,0.6c1.9,0.2,3.9,0.6,5.9,0.9
		C243,231.8,242.3,235.9,241.6,240.6z M230.2,212c-6.2-0.9-10.7,2.5-15.8,4.6c-8.6,3.6-17,8.7-26,10.3c-21.9,3.9-40.1-4.6-55.4-20.1
		c-3-3-5.8-6.2-8.1-9.7c-4.3-6.3-10.1-10.1-17.1-13c-12.8-5.4-25.4-11.3-38-17c-1.8-0.8-3.3-1.5-3.2-4.1c0.1-27.1,0.1-54.3,0.1-81.4
		c0-0.4,0.1-0.8,0.3-1.6c1.4,0.6,2.6,1.1,3.8,1.7c22.6,11.3,45.2,22.6,67.9,33.7c3.5,1.7,7.8,2.6,11.6,2.6
		c32.5-0.4,64.9-1.2,97.4-1.9c8.4-0.2,15.3,2.7,20.8,9.2c7.2,8.5,14.3,17,21.9,25.1c7.8,8.4,9.8,17.7,6.1,28.4
		c-6.3-1.6-12.7-3.1-19.2-4.7c0.3-5.5,4.2-12.2-4.4-14.4c-4.5-1.1-6.2,1.2-9.2,11c-8.6-0.1-9.2-0.5-12.2-8.2
		c-1.6-4-3.1-8.1-4.8-12.1c-1.7-4-5.3-5.5-8.9-4.2c-3.5,1.4-5,5-3.6,9.1c1.1,3.3,2.5,6.5,4,10.4c-3.9-0.8-7.3-1.5-10.7-2.2
		c-1.2-0.3-2.5-0.6-3.7-0.7c-3.9-0.4-6.9,1.6-7.7,5c-0.8,3.6,1.1,7.1,5,8c8.9,2.1,17.8,3.9,26.7,5.9c12.6,2.7,25.2,5.4,37.8,8.3
		c8.4,1.9,13.4,8.9,12,16.6c-1.4,8-8.6,12.8-17.2,11.8C263.6,216.1,246.9,214.3,230.2,212z M353.2,240c-0.6,3.7-2.1,7.9-4.6,10.5
		c-14.3,14.8-29.1,29.3-44,44.2c-0.7-0.6-1.3-1.1-1.8-1.5c-13.9-13.9-27.8-27.8-41.7-41.7c-5.2-5.2-6.8-11.4-4.4-18.5
		c0.9-2.5,2.2-3.9,5.3-3.4c6.4,1,13,2.8,19.2,2.1c7.5-0.9,11.3,3,15.5,7.6c0.9,0.9,1.8,1.8,2.7,2.7c3.5,3.2,7,3.3,10.4,0
		c5.2-5,10.1-10.2,15.3-15.1c5.4-5.1,12.7-6.1,19.1-2.9C350.1,226.9,354.2,233.4,353.2,240z"/>
	<path class="st0" d="M353.2,240c-0.6,3.7-2.1,7.9-4.6,10.5c-14.3,14.8-29.1,29.3-44,44.2c-0.7-0.6-1.3-1.1-1.8-1.5
		c-13.9-13.9-27.8-27.8-41.7-41.7c-5.2-5.2-6.8-11.4-4.4-18.5c0.9-2.5,2.2-3.9,5.3-3.4c6.4,1,13,2.8,19.2,2.1
		c7.5-0.9,11.3,3,15.5,7.6c0.9,0.9,1.8,1.8,2.7,2.7c3.5,3.2,7,3.3,10.4,0c5.2-5,10.1-10.2,15.3-15.1c5.4-5.1,12.7-6.1,19.1-2.9
		C350.1,226.9,354.2,233.4,353.2,240z"/>
	<path d="M228.7,345.4c2.9-11.4,9.5-18.8,20.7-21.6c2.7-0.7,5.6-0.7,8.4-0.7c19.5-0.1,39.1,0,58.6-0.1c2.1,0,4.7-1,6.3-2.3
		c27.6-23.4,67.1-23.5,94.9-0.2c1.8,1.5,4.7,2.4,7.1,2.5c8.3,0.3,16.6,0.1,24.9,0.1c6.2,0,8.5,2.3,8.5,8.3c0,30.5,0,61,0,91.5
		c0,6-2.5,8.9-8.5,8.3c-27-2.8-52.2,5.5-77.6,12.3c-18.3,4.9-36.6,9.8-54.9,14.5c-19.2,5-37.3,2.2-54.1-8.5
		c-36-22.9-72-45.8-108-68.8c-3-1.9-6-3.7-8.8-5.7c-11.3-8-15.1-22.5-9.2-34.8c5.8-12.3,19.5-18.5,32.9-14.3
		c18.2,5.7,36.2,12,54.3,18C225.4,344.4,226.9,344.8,228.7,345.4z M444.2,417.5c0-27,0-53.7,0-80.9c-8,0-15.7-0.1-23.4,0.1
		c-4.1,0.1-7.2-1.1-10.2-3.9c-23.2-21.6-57.8-21.6-80.9,0c-3,2.8-6.2,3.9-10.2,3.9c-21.1-0.1-42.2-0.1-63.3,0c-8.2,0-14,5.5-14.2,13
		c-0.2,7.7,5.5,13.5,13.8,14c1.3,0.1,2.5,0,3.8,0c20.7,0,41.3,0,62,0c5,0,8,2.6,8.1,6.6c0,4-3,6.8-7.9,6.8
		c-22.1,0.1-44.1,0.2-66.2,0c-10.5-0.1-18.5-5-23.9-14.1c-0.8-1.4-2.4-2.8-3.9-3.3c-20.5-7-41-13.8-61.5-20.6
		c-7.4-2.4-14.3,0.5-17.4,7c-3.2,6.7-1.1,14.3,5.5,18.4c39.3,25.1,78.6,50.2,118.1,75c11.3,7.1,23.9,9.4,36.9,6.3
		c22.4-5.4,44.6-11.4,66.8-17.3c22.1-5.9,43.9-13.1,67.3-10.7C443.6,417.7,443.7,417.6,444.2,417.5z"/>
</g>
</svg>
