<?xml version="1.0" encoding="utf-8"?>
<!-- Generator: Adobe Illustrator 24.0.2, SVG Export Plug-In . SVG Version: 6.00 Build 0)  -->
<svg version="1.1" id="Layer_1" xmlns="http://www.w3.org/2000/svg" xmlns:xlink="http://www.w3.org/1999/xlink" height="20px"
	 viewBox="0 0 485.6 39.4" style="enable-background:new 0 0 485.6 39.4;" xml:space="preserve">
<style type="text/css">
	.st0{display:none;}
	.st1{display:inline;}
	.st2{fill:#57BFED;}
	.st3{fill:#223366;}
	.st4{fill:#088B45;}
	.st5{fill:#F17A21;}
	.st6{fill:#6E6F71;}
	.st7{fill:#717170;}
	.st8{fill:#098041;}
	.st9{fill:#E87726;}
	.st10{fill:#6E6F72;}
	.st11{fill:#603392;}
	.st12{fill:#5F6369;}
	.st13{fill:#547DBE;}
	.st14{fill:#34A751;}
	.st15{fill:#F8BB15;}
	.st16{fill:#E94435;}
</style>
<g id="Layer_1_1_" class="st0">
	<g class="st1">
		<g id="layer1_1_">
			<g id="g52_1_" transform="matrix(0.35277777,0,0,-0.35277777,16.777056,1.5610286)">
				<path id="path54_1_" class="st2" d="M718.5-28.6c-2.3,6.5-8.4,11.1-15.6,11.1h-0.2c-4.7,0-8.9-2-11.9-5.1
					c-3,3.1-7.3,5.1-11.9,5.1h-0.2c-4.1,0-7.9-1.5-10.8-4v1.3c-0.1,1.3-1.1,2.3-2.4,2.3h-11.1c-1.4,0-2.5-1.1-2.5-2.5v-60.2
					c0-1.4,1.1-2.5,2.5-2.5h11.1c1.2,0,2.3,0.9,2.4,2.1v43.2c0,0.2,0,0.3,0,0.4c0.2,1.9,1.6,3.5,3.8,3.7h0.4h1.2h0.5
					c0.9-0.1,1.7-0.4,2.3-0.9c1-0.8,1.5-1.9,1.5-3.2v-43c0-1.4,1.1-2.5,2.5-2.5h11.1c1.3,0,2.4,1,2.4,2.3v43.2
					c0,1.4,0.7,2.7,1.8,3.5c0.6,0.4,1.3,0.6,2,0.7h0.4h1.2h0.5c2.4-0.2,3.8-2,3.8-4.1v-42.9c0-1.4,1.1-2.5,2.5-2.5h11.1
					c1.4,0,2.5,1.1,2.5,2.5v46.2C719.4-31.3,719-29.9,718.5-28.6"/>
			</g>
			<g id="g56_1_" transform="matrix(0.35277777,0,0,-0.35277777,11.699676,0.85374862)">
				<path id="path58_1_" class="st2" d="M657.9-20.1h-6.4v10.3l0,0l0,0c0,1.2-1,2.2-2.2,2.2c-0.1,0-0.3,0-0.4,0
					c-7-1.9-5.6-11.7-18.5-12.5h-0.3h-1c-0.2,0-0.4,0-0.5-0.1l0,0l0,0c-1.1-0.2-1.9-1.2-1.9-2.4v-11.1c0-1.4,1.1-2.5,2.5-2.5h6.7
					v-47c0-1.3,1.1-2.4,2.4-2.4h11c1.3,0,2.4,1.1,2.4,2.4v47h6.2c1.4,0,2.5,1.1,2.5,2.5v11.1C660.3-21.2,659.2-20.1,657.9-20.1"/>
			</g>
			<g id="g60_1_" transform="matrix(0.35277777,0,0,-0.35277777,9.0012361,0.85374862)">
				<path id="path62_1_" class="st3" d="M625.6-20.1h-11.1c-1.4,0-2.4-1.1-2.4-2.5v-22.9c0-1.4-1.2-2.6-2.6-2.6h-4.6
					c-1.4,0-2.6,1.2-2.6,2.6v22.9c0,1.4-1.1,2.5-2.5,2.5h-11.1c-1.4,0-2.5-1.1-2.5-2.5v-25.1c0-9.5,6.8-16.3,16.4-16.3
					c0,0,7.2,0,7.4,0c1.3-0.1,2.3-1.2,2.3-2.6c0-1.3-1-2.4-2.3-2.6c-0.1,0-0.1,0-0.2,0l-16.2-0.1c-1.4,0-2.5-1.1-2.5-2.5v-11.1
					c0-1.4,1.1-2.5,2.5-2.5h18.1c9.6,0,16.4,6.8,16.4,16.3v46.4C628.1-21.2,627-20.1,625.6-20.1"/>
			</g>
			<g id="g64_1_" transform="matrix(0.35277777,0,0,-0.35277777,1.7417071,2.2279886)">
				<path id="path66_1_" class="st3" d="M538.9-36.5v-5.2v-1.7c0-1.4-1.2-2.6-2.6-2.6h-7v13.7h7c1.4,0,2.6-1.2,2.6-2.6V-36.5z
					 M539.9-16.2h-24.2c-1.3,0-2.4-1.1-2.4-2.4v-10.9c0,0,0,0,0-0.1s0-0.1,0-0.2v-34.8v-14.3c0-1.3,1-2.4,2.2-2.5h0.2h11.1
					c1.4,0,2.5,1.1,2.5,2.5v16.8h10.6c8.9,0,15.1,6.2,15.1,15.1v15.7C555-22.4,548.8-16.2,539.9-16.2"/>
			</g>
			<g id="g68_1_" transform="matrix(0.35277777,0,0,-0.35277777,4.8535941,3.9887686)">
				<path id="path70_1_" class="st3" d="M576.1-57.6v-1.7c0-0.1,0-0.3,0-0.4s-0.1-0.2-0.1-0.4c-0.3-1-1.3-1.7-2.5-1.7h-4.6
					c-1.4,0-2.6,1.1-2.6,2.4v2.1v0.1v5.6l0,0v0.6v1.1l0,0c0,1.3,1.2,2.4,2.6,2.4h4.6c1.4,0,2.6-1.1,2.6-2.4V-57.6z M574.3-11.3
					h-15.4c-1.4,0-2.5-1-2.5-2.3v-4.3V-18v-0.1V-24c0-1.3,1.2-2.4,2.6-2.4h14.6c1.2-0.2,2.1-1,2.2-2.3v-1.4c-0.1-1.3-1-2.2-2.1-2.3
					h-7.3c-9.6,0-16.5-6.4-16.5-15.4v-12.6v-0.3c0-8.9,5.9-15.3,15.5-15.3h20.1c3.6,0,6.5,2.7,6.5,6.1v42.1
					C592.2-17.7,586.9-11.3,574.3-11.3"/>
			</g>
		</g>
		<g>
			<polygon class="st4" points="66,6.5 71.7,16.9 59.8,27.2 			"/>
			<polygon class="st5" points="62,6.5 67.7,16.9 55.8,27.2 			"/>
			<path class="st6" d="M-18.4,21.5c-0.4,0.8-1.3,1.4-2.4,1.6h-0.8h-15.1l1.3-4.2h11.7h3.6h0.8c0.6,0.1,1,0.6,1.2,1.1
				c0,0.1,0,0.2,0,0.4c0,0.1,0,0.1,0,0.2v0.1L-18.4,21.5z M-32.9,10.6h11.7h3.7h0.8c0.4,0.1,0.8,0.4,1,0.7c0.1,0.2,0.1,0.5,0.1,0.8
				c0,0.1,0,0.3,0,0.4v0.1l-0.2,0.6c-0.4,0.9-1.3,1.6-2.4,1.7h-0.7h-15.3L-32.9,10.6z M-16.1,26.5c0.6-0.4,0.9-0.9,1.1-1.5l1.9-6.2
				c0.2-0.6,0.1-1-0.2-1.4s-0.8-0.6-1.4-0.6c0.6,0,1.2-0.2,1.8-0.6c0.6-0.4,0.9-0.9,1.1-1.4l1.9-6.2c0.2-0.6,0.1-1.1-0.2-1.5
				s-0.8-0.6-1.4-0.6h-24.6L-42.3,27h24.5C-17.2,27.1-16.6,26.9-16.1,26.5"/>
			<polygon class="st6" points="15.7,6.6 13.2,14.9 -4.5,14.9 -2,6.6 -6.4,6.6 -12.5,27.1 -8.1,27.1 -5.7,18.9 12,18.9 9.6,27.1 
				14,27.1 20.1,6.6 			"/>
			<polygon class="st6" points="21.4,27.1 16.9,27.1 23.1,6.7 27.5,6.7 			"/>
			<polygon class="st6" points="58.3,6.7 39.9,21 33.5,11.2 30.6,6.7 30.5,6.7 29.1,11.3 24.4,27 28.8,27 32.1,16 39.1,27.1 
				50.7,17.3 47.8,27 52.2,27 56.5,12.7 			"/>
			<path class="st6" d="M-42.7,30.9h0.2c0.3,0,0.5,0,0.6-0.1c0.1-0.1,0.2-0.2,0.3-0.3c0-0.2,0-0.3-0.1-0.3c-0.1-0.1-0.3-0.1-0.6-0.1
				h-0.2L-42.7,30.9z M-43,32.2h0.2c0.2,0,0.3,0,0.5,0c0.1,0,0.2,0,0.3-0.1c0.1,0,0.1-0.1,0.2-0.2c0.1-0.1,0.1-0.1,0.1-0.2
				c0-0.1,0-0.2,0-0.3s-0.1-0.1-0.2-0.2c-0.1,0-0.1,0-0.2-0.1c-0.1,0-0.2,0-0.3,0h-0.2h-0.2L-43,32.2z M-43.7,32.6l0.8-3h0.9
				c0.2,0,0.4,0,0.5,0c0.1,0,0.2,0.1,0.3,0.1c0.1,0.1,0.2,0.2,0.2,0.3s0,0.2,0,0.4s-0.1,0.3-0.2,0.4c-0.1,0.1-0.3,0.2-0.4,0.2
				c0.2,0,0.3,0.1,0.4,0.2c0.1,0.1,0.1,0.3,0,0.5c0,0.1-0.1,0.2-0.2,0.3c-0.1,0.1-0.2,0.2-0.3,0.3c-0.1,0.1-0.2,0.1-0.4,0.2
				c-0.1,0-0.4,0-0.7,0L-43.7,32.6L-43.7,32.6z"/>
			<polygon class="st6" points="-39.4,32.6 -38.6,29.6 -38.1,29.6 -38.4,30.7 -36.6,30.7 -36.3,29.6 -35.8,29.6 -36.6,32.6 
				-37.1,32.6 -36.8,31.1 -38.5,31.1 -38.9,32.6 			"/>
			<path class="st6" d="M-33.3,31.4h1l-0.2-0.7c0,0,0-0.1,0-0.2c0-0.1,0-0.1,0-0.2c0,0.1-0.1,0.1-0.1,0.2c0,0.1-0.1,0.1-0.1,0.2
				L-33.3,31.4z M-32,32.6l-0.2-0.8h-1.4l-0.6,0.8h-0.6l2.5-3.1l0.9,3.1H-32z"/>
			<path class="st6" d="M-28.6,30.9h0.1c0.3,0,0.5,0,0.6-0.1s0.2-0.2,0.2-0.3c0-0.2,0-0.3-0.1-0.4c-0.1-0.1-0.3-0.1-0.6-0.1h-0.1
				L-28.6,30.9z M-28.7,31.3l-0.4,1.4h-0.5l0.8-3h0.8c0.2,0,0.4,0,0.5,0s0.2,0.1,0.3,0.1c0.1,0.1,0.1,0.2,0.2,0.3c0,0.1,0,0.2,0,0.4
				c-0.1,0.2-0.2,0.4-0.3,0.6c-0.2,0.1-0.4,0.2-0.7,0.2l0.8,1.4h-0.6L-28.7,31.3L-28.7,31.3z"/>
			<path class="st6" d="M-24.4,31.4h1l-0.2-0.7c0,0,0-0.1,0-0.2c0-0.1,0-0.1,0-0.2c0,0.1-0.1,0.1-0.1,0.2c0,0.1-0.1,0.1-0.1,0.2
				L-24.4,31.4z M-23.1,32.6l-0.2-0.8h-1.4l-0.6,0.8h-0.6l2.5-3.1l0.9,3.1H-23.1z"/>
			<polygon class="st6" points="-19.2,30 -19.8,32.6 -20.4,32.6 -19.7,30 -20.7,30 -20.5,29.6 -18.1,29.6 -18.2,30 			"/>
			<polygon class="st6" points="-14.1,32.6 -13.3,29.6 -12.7,29.6 -13.5,32.6 			"/>
			<path class="st6" d="M-11.2,32.6l0.8-3.1l1.7,1.8c0,0.1,0.1,0.1,0.1,0.2c0,0.1,0.1,0.1,0.1,0.2l0.5-2.1h0.5l-0.8,3.1l-1.6-1.9
				c0-0.1-0.1-0.1-0.1-0.2c0-0.1-0.1-0.1-0.1-0.2l-0.5,2.1h-0.6V32.6z"/>
			<polygon class="st6" points="-4,30 -4.7,32.6 -5.3,32.6 -4.6,30 -5.5,30 -5.4,29.6 -3,29.6 -3.1,30 			"/>
			<polygon class="st6" points="-1.9,32.6 -1.1,29.6 0.9,29.6 0.7,30 -0.6,30 -0.8,30.8 0.5,30.8 0.4,31.2 -0.9,31.2 -1.2,32.2 
				0.2,32.2 0.1,32.6 			"/>
			<path class="st6" d="M3.2,30.9L3.2,30.9c0.4,0,0.6,0,0.7-0.1s0.2-0.2,0.2-0.3c0-0.2,0-0.3-0.1-0.4C3.9,30,3.7,30,3.4,30H3.3
				L3.2,30.9z M3.1,31.3l-0.4,1.4H2.2l0.8-3h0.8c0.2,0,0.4,0,0.5,0s0.2,0.1,0.3,0.1c0.1,0.1,0.1,0.2,0.2,0.3c0,0.1,0,0.2,0,0.4
				c-0.1,0.2-0.2,0.4-0.4,0.6c-0.2,0.1-0.4,0.2-0.7,0.2l0.8,1.4H3.9L3.1,31.3L3.1,31.3z"/>
			<polygon class="st6" points="6.4,32.6 7.2,29.6 9.1,29.6 9,30 7.6,30 7.4,30.8 8.8,30.8 8.7,31.2 7.3,31.2 7,32.6 			"/>
			<path class="st6" d="M11.3,31.4h1l-0.2-0.7c0,0,0-0.1,0-0.2c0-0.1,0-0.1,0-0.2c0,0.1-0.1,0.1-0.1,0.2c0,0.1-0.1,0.1-0.1,0.2
				L11.3,31.4z M12.5,32.6l-0.2-0.8h-1.4l-0.6,0.8H9.7l2.5-3.1l0.9,3.1H12.5z"/>
			<path class="st6" d="M18.3,30.3c-0.1-0.1-0.3-0.2-0.4-0.3c-0.2-0.1-0.3-0.1-0.5-0.1c-0.4,0-0.7,0.1-1,0.3s-0.5,0.5-0.6,0.8
				s0,0.6,0.1,0.8c0.2,0.2,0.4,0.3,0.8,0.3c0.2,0,0.4,0,0.6-0.1c0.2-0.1,0.4-0.2,0.6-0.3l-0.1,0.6c-0.2,0.1-0.4,0.2-0.6,0.2
				s-0.4,0.1-0.6,0.1c-0.3,0-0.5,0-0.7-0.1c-0.2-0.1-0.4-0.2-0.5-0.3s-0.2-0.3-0.3-0.5c0-0.2,0-0.4,0-0.6c0.1-0.2,0.2-0.4,0.3-0.6
				c0.1-0.2,0.3-0.4,0.5-0.5c0.2-0.1,0.4-0.3,0.7-0.3c0.2-0.1,0.5-0.1,0.8-0.1c0.2,0,0.4,0,0.6,0.1c0.2,0,0.3,0.1,0.5,0.2L18.3,30.3
				z"/>
			<polygon class="st6" points="19.8,32.6 20.6,29.6 22.6,29.6 22.5,30 21.1,30 20.9,30.8 22.3,30.8 22.1,31.2 20.8,31.2 20.5,32.2 
				21.9,32.2 21.8,32.6 			"/>
			<polygon class="st6" points="26.8,32.6 27.6,29.6 29.6,29.6 29.5,30 28.1,30 27.9,30.8 29.3,30.8 29.2,31.2 27.8,31.2 27.4,32.6 
							"/>
			<path class="st6" d="M34.2,31.1c0-0.2,0-0.3,0-0.4c0-0.1-0.1-0.3-0.2-0.4c-0.1-0.1-0.2-0.2-0.3-0.2C33.6,30,33.4,30,33.2,30
				s-0.3,0-0.5,0.1s-0.3,0.1-0.5,0.2c-0.1,0.1-0.3,0.2-0.4,0.4c-0.1,0.1-0.2,0.3-0.2,0.4c0,0.2,0,0.3,0,0.4c0,0.1,0.1,0.3,0.2,0.4
				c0.1,0.1,0.2,0.2,0.3,0.2c0.1,0.1,0.3,0.1,0.5,0.1s0.3,0,0.5-0.1s0.3-0.1,0.5-0.2c0.1-0.1,0.3-0.2,0.4-0.4
				C34.1,31.4,34.2,31.3,34.2,31.1 M34.8,31.1c-0.1,0.2-0.2,0.4-0.3,0.6c-0.1,0.2-0.3,0.4-0.5,0.5s-0.4,0.3-0.7,0.3
				c-0.2,0.1-0.5,0.1-0.7,0.1c-0.3,0-0.5,0-0.7-0.1c-0.2-0.1-0.4-0.2-0.5-0.3c-0.1-0.2-0.2-0.3-0.3-0.5c0-0.2,0-0.4,0-0.6
				c0.1-0.2,0.2-0.4,0.3-0.6c0.1-0.2,0.3-0.4,0.5-0.5c0.2-0.1,0.4-0.3,0.7-0.3c0.2-0.1,0.5-0.1,0.7-0.1c0.3,0,0.5,0,0.7,0.1
				s0.4,0.2,0.5,0.3c0.1,0.2,0.2,0.3,0.3,0.5C34.9,30.7,34.9,30.9,34.8,31.1"/>
			<path class="st6" d="M37.6,30.9L37.6,30.9c0.4,0,0.6,0,0.7-0.1s0.2-0.2,0.2-0.3c0-0.2,0-0.3-0.1-0.4C38.3,30,38.1,30,37.8,30
				h-0.1L37.6,30.9z M37.4,31.3l-0.3,1.3h-0.5l0.8-3h0.7c0.2,0,0.4,0,0.5,0s0.2,0.1,0.3,0.1c0.1,0.1,0.1,0.2,0.2,0.3
				c0,0.1,0,0.2,0,0.4c-0.1,0.2-0.2,0.4-0.4,0.6c-0.1,0.1-0.3,0.2-0.6,0.2l0.8,1.4h-0.6L37.4,31.3L37.4,31.3z"/>
			<path class="st6" d="M46.9,31.1c0,0,0-0.1,0-0.2c0-0.1,0-0.2,0-0.2c0,0.1-0.1,0.1-0.1,0.2c0,0.1-0.1,0.1-0.2,0.2l-1.3,1.6
				l-0.5-1.6c0-0.1,0-0.1,0-0.2c0-0.1,0-0.1,0-0.2c0,0.1,0,0.1-0.1,0.2c0,0.1-0.1,0.1-0.1,0.2l-0.8,1.5h-0.5l1.6-3.2l0.5,1.9
				c0,0,0,0.1,0,0.2c0,0.1,0,0.2,0,0.3c0.1-0.1,0.1-0.2,0.2-0.3c0,0,0-0.1,0.1-0.1l1.5-1.9v3.2h-0.5v-1.6H46.9z"/>
			<path class="st6" d="M52.8,31.1c0-0.2,0-0.3,0-0.4c0-0.1-0.1-0.3-0.2-0.4c-0.1-0.1-0.2-0.2-0.3-0.2C52.2,30,52,30,51.8,30
				s-0.3,0-0.5,0.1s-0.3,0.1-0.5,0.2c-0.1,0.1-0.3,0.2-0.4,0.4c-0.1,0.1-0.2,0.3-0.2,0.4c0,0.2,0,0.3,0,0.4c0,0.1,0.1,0.3,0.2,0.4
				c0.1,0.1,0.2,0.2,0.3,0.2c0.1,0.1,0.3,0.1,0.5,0.1s0.3,0,0.5-0.1s0.3-0.1,0.5-0.2c0.1-0.1,0.3-0.2,0.4-0.4
				C52.6,31.4,52.7,31.3,52.8,31.1 M53.3,31.1c-0.1,0.2-0.2,0.4-0.3,0.6c-0.1,0.2-0.3,0.4-0.5,0.5s-0.5,0.3-0.7,0.3
				c-0.2,0.1-0.5,0.1-0.7,0.1s-0.5,0-0.7-0.1s-0.4-0.2-0.5-0.3c-0.1-0.2-0.2-0.3-0.3-0.5c0-0.2,0-0.4,0-0.6c0.1-0.2,0.2-0.4,0.3-0.6
				c0.1-0.2,0.3-0.4,0.5-0.5s0.4-0.3,0.7-0.3c0.2-0.1,0.5-0.1,0.7-0.1c0.3,0,0.5,0,0.7,0.1s0.4,0.2,0.5,0.3c0.1,0.2,0.2,0.3,0.3,0.5
				C53.4,30.7,53.4,30.9,53.3,31.1"/>
			<path class="st6" d="M55.1,32.6l0.8-3.1l1.7,1.8c0,0.1,0.1,0.1,0.1,0.2c0,0.1,0.1,0.1,0.1,0.2l0.5-2.1h0.5L58,32.7l-1.8-1.9
				c0-0.1-0.1-0.1-0.1-0.2c0-0.1-0.1-0.1-0.1-0.2l-0.5,2.1h-0.4V32.6z"/>
			<polygon class="st6" points="60.5,32.6 61.2,29.6 63.2,29.6 63.1,30 61.7,30 61.5,30.8 62.9,30.8 62.8,31.2 61.4,31.2 61.1,32.2 
				62.5,32.2 62.4,32.6 			"/>
			<path class="st6" d="M65.3,32.6l0.4-1.4L65,29.6h0.6l0.5,1v0.1v0.1l0.1-0.1l0.1-0.1l1-1h0.6l-1.6,1.6l-0.4,1.4H65.3z"/>
			<path class="st7" d="M83.2,28.9h0.6l-0.5,2.2c-0.1,0.3-0.1,0.6,0,0.7c0.1,0.2,0.3,0.2,0.6,0.2s0.5-0.1,0.7-0.2
				c0.2-0.2,0.3-0.4,0.4-0.7l0.5-2.2h0.6l-0.5,2.3c-0.1,0.5-0.3,0.9-0.6,1.1c-0.3,0.2-0.7,0.4-1.2,0.4s-0.8-0.1-1-0.4
				c-0.2-0.2-0.2-0.6-0.1-1.1L83.2,28.9z"/>
			<path class="st7" d="M86.1,32.6l0.9-3.8l1.7,2.2c0,0.1,0.1,0.1,0.1,0.2c0,0.1,0.1,0.2,0.1,0.2l0.6-2.5H90l-0.9,3.8l-1.8-2.3
				c0-0.1-0.1-0.1-0.1-0.2c0-0.1-0.1-0.1-0.1-0.2l-0.6,2.5L86.1,32.6L86.1,32.6z"/>
			<polygon class="st7" points="90.1,32.6 90.9,28.9 91.5,28.9 90.6,32.6 			"/>
			<polygon class="st7" points="91.5,32.6 92.4,28.9 94.3,28.9 94.2,29.4 92.8,29.4 92.6,30.3 94,30.3 93.9,30.9 92.5,30.9 
				92.1,32.6 			"/>
			<polygon class="st7" points="94.1,32.6 95,28.9 95.6,28.9 94.7,32.6 			"/>
			<polygon class="st7" points="95.5,32.6 96.4,28.9 98.4,28.9 98.3,29.4 96.9,29.4 96.6,30.4 98,30.4 97.9,30.9 96.5,30.9 
				96.2,32.1 97.6,32.1 97.5,32.6 			"/>
			<path class="st7" d="M98.9,32h0.5c0.3,0,0.5,0,0.6-0.1c0.1,0,0.3-0.1,0.4-0.2c0.2-0.1,0.3-0.3,0.4-0.4c0.1-0.2,0.2-0.4,0.2-0.6
				c0.1-0.2,0.1-0.4,0-0.6c0-0.2-0.1-0.3-0.2-0.4c-0.1-0.1-0.2-0.1-0.3-0.2c-0.1,0-0.3-0.1-0.6-0.1h-0.2h-0.2L98.9,32z M98.2,32.6
				l0.9-3.7h0.8c0.5,0,0.9,0,1.1,0.1c0.2,0.1,0.4,0.1,0.5,0.3c0.2,0.2,0.3,0.4,0.3,0.6c0,0.3,0,0.5,0,0.9c-0.1,0.3-0.2,0.6-0.4,0.9
				c-0.2,0.3-0.4,0.5-0.6,0.6c-0.2,0.1-0.4,0.2-0.6,0.3c-0.2,0.1-0.5,0.1-0.9,0.1h-0.2L98.2,32.6L98.2,32.6z"/>
			<path class="st7" d="M104.5,30.5h0.1c0.3,0,0.5,0,0.7-0.1c0.1-0.1,0.2-0.2,0.3-0.4c0-0.2,0-0.3-0.1-0.4c-0.1-0.1-0.3-0.1-0.6-0.1
				h-0.1L104.5,30.5z M104.3,30.9l-0.4,1.6h-0.5l0.9-3.7h0.9c0.3,0,0.4,0,0.6,0c0.1,0,0.2,0.1,0.3,0.1c0.1,0.1,0.2,0.2,0.2,0.3
				s0,0.3,0,0.5s-0.1,0.3-0.2,0.5c-0.1,0.1-0.2,0.3-0.3,0.3c-0.1,0.1-0.2,0.1-0.4,0.1c-0.1,0-0.3,0-0.6,0h-0.1h-0.4V30.9z"/>
			<path class="st7" d="M106.9,31.2h1l-0.2-0.8c0-0.1,0-0.1,0-0.2c0-0.1,0-0.1,0-0.2c0,0.1-0.1,0.2-0.1,0.2c0,0.1-0.1,0.1-0.1,0.2
				L106.9,31.2z M108.1,32.6l-0.2-0.9h-1.4l-0.6,0.9h-0.6l2.6-3.8l0.8,3.8H108.1z"/>
			<path class="st7" d="M109.6,32.6l0.4-1.7l-0.7-2h0.6l0.5,1.2v0.1c0,0.1,0,0.1,0,0.2c0-0.1,0.1-0.1,0.1-0.2c0-0.1,0.1-0.1,0.1-0.1
				l1.1-1.2h0.6l-1.7,2l-0.4,1.7H109.6z"/>
			<path class="st7" d="M115.1,30.8c0,0,0-0.1,0-0.2c0-0.1,0-0.2,0-0.3c0,0.1-0.1,0.2-0.1,0.3s-0.1,0.2-0.2,0.3l-1.4,1.9l-0.5-2
				c0-0.1,0-0.2,0-0.2c0-0.1,0-0.2,0-0.2c0,0.1,0,0.2-0.1,0.2c0,0.1-0.1,0.2-0.1,0.3l-0.8,1.8h-0.5l1.8-3.8l0.5,2.3c0,0,0,0.1,0,0.2
				c0,0.1,0,0.2,0,0.3c0.1-0.1,0.1-0.2,0.3-0.4l0.1-0.1l1.6-2.3l-0.1,3.8h-0.5V30.8z"/>
			<polygon class="st7" points="116,32.6 116.9,28.9 118.9,28.9 118.8,29.4 117.4,29.4 117.2,30.4 118.6,30.4 118.4,30.9 117,30.9 
				116.8,32.1 118.2,32.1 118,32.6 			"/>
			<path class="st7" d="M118.7,32.6l0.9-3.8l1.7,2.2c0,0.1,0.1,0.1,0.1,0.2c0,0.1,0.1,0.2,0.1,0.2l0.6-2.5h0.5l-0.9,3.8l-1.8-2.3
				c0-0.1-0.1-0.1-0.1-0.2c0-0.1-0.1-0.1-0.1-0.2l-0.6,2.5L118.7,32.6L118.7,32.6z"/>
			<polygon class="st7" points="124.6,29.4 123.9,32.6 123.3,32.6 124,29.4 123.1,29.4 123.2,28.9 125.7,28.9 125.6,29.4 			"/>
			<path class="st7" d="M125.2,31.9l0.5-0.2c0,0.2,0.1,0.3,0.2,0.4c0.1,0.1,0.2,0.1,0.4,0.1s0.3,0,0.4-0.1c0.1-0.1,0.2-0.2,0.2-0.4
				c0.1-0.2-0.1-0.4-0.4-0.6c0,0-0.1,0-0.1-0.1c-0.3-0.2-0.6-0.4-0.7-0.5c-0.1-0.2-0.1-0.4-0.1-0.6c0.1-0.3,0.2-0.5,0.5-0.7
				c0.2-0.2,0.5-0.3,0.8-0.3s0.5,0.1,0.6,0.2c0.2,0.1,0.2,0.3,0.3,0.4l-0.5,0.2c0-0.1-0.1-0.2-0.2-0.3c-0.1-0.1-0.2-0.1-0.3-0.1
				c-0.2,0-0.3,0-0.4,0.1c-0.1,0.1-0.2,0.2-0.2,0.3c-0.1,0.2,0.1,0.4,0.5,0.6h0.1c0.3,0.2,0.5,0.3,0.6,0.5s0.1,0.4,0.1,0.6
				c-0.1,0.3-0.3,0.6-0.5,0.8c-0.3,0.2-0.6,0.3-0.9,0.3c-0.3,0-0.5-0.1-0.7-0.2C125.3,32.3,125.2,32.1,125.2,31.9"/>
			<polygon class="st7" points="129.5,32.6 130.4,28.9 130.9,28.9 130.1,32.6 			"/>
			<path class="st7" d="M130.9,32.6l0.9-3.8l1.7,2.2c0,0.1,0.1,0.1,0.1,0.2c0,0.1,0.1,0.2,0.1,0.2l0.6-2.5h0.5l-0.9,3.8l-1.8-2.3
				c0-0.1-0.1-0.1-0.1-0.2c0-0.1-0.1-0.1-0.1-0.2l-0.6,2.5L130.9,32.6L130.9,32.6z"/>
			<polygon class="st7" points="136.8,29.4 136.1,32.6 135.5,32.6 136.2,29.4 135.3,29.4 135.4,28.9 137.9,28.9 137.8,29.4 			"/>
			<polygon class="st7" points="137.4,32.6 138.3,28.9 140.3,28.9 140.2,29.4 138.8,29.4 138.6,30.4 140,30.4 139.8,30.9 
				138.4,30.9 138.2,32.1 139.6,32.1 139.4,32.6 			"/>
			<path class="st7" d="M141.2,30.5h0.1c0.3,0,0.5,0,0.6-0.1s0.2-0.2,0.2-0.4s0-0.3-0.1-0.4c-0.1-0.1-0.3-0.1-0.6-0.1h-0.1
				L141.2,30.5z M141,31l-0.4,1.6h-0.5l0.9-3.7h0.8c0.2,0,0.4,0,0.5,0s0.2,0.1,0.3,0.2c0.1,0.1,0.1,0.2,0.2,0.3c0,0.1,0,0.3,0,0.5
				c-0.1,0.3-0.2,0.5-0.4,0.7s-0.4,0.3-0.7,0.3l0.8,1.7h-0.7L141,31L141,31z"/>
			<polygon class="st7" points="142.9,32.6 143.8,28.9 145.8,28.9 145.6,29.4 144.2,29.4 144,30.3 145.4,30.3 145.3,30.9 
				143.9,30.9 143.5,32.6 			"/>
			<path class="st7" d="M146.4,31.2h1l-0.2-0.8c0-0.1,0-0.1,0-0.2c0-0.1,0-0.1,0-0.2c0,0.1-0.1,0.2-0.1,0.2c0,0.1-0.1,0.1-0.1,0.2
				L146.4,31.2z M147.7,32.6l-0.2-0.9h-1.4l-0.6,0.9h-0.6l2.6-3.8l0.8,3.8H147.7z"/>
			<path class="st7" d="M152.1,29.8c-0.1-0.1-0.3-0.3-0.4-0.3c-0.2-0.1-0.3-0.1-0.5-0.1c-0.4,0-0.7,0.1-1,0.4
				c-0.3,0.3-0.5,0.6-0.6,1s-0.1,0.7,0.1,1c0.2,0.3,0.4,0.4,0.8,0.4c0.2,0,0.4,0,0.6-0.1c0.2-0.1,0.4-0.2,0.6-0.3l-0.2,0.7
				c-0.2,0.1-0.4,0.2-0.6,0.3c-0.2,0.1-0.4,0.1-0.6,0.1c-0.3,0-0.5,0-0.7-0.1s-0.4-0.2-0.5-0.4s-0.2-0.4-0.3-0.6c0-0.2,0-0.5,0-0.8
				c0.1-0.3,0.2-0.5,0.3-0.8c0.2-0.2,0.3-0.4,0.6-0.6c0.2-0.2,0.5-0.3,0.7-0.4c0.3-0.1,0.5-0.1,0.8-0.1c0.2,0,0.4,0,0.6,0.1
				c0.2,0.1,0.3,0.2,0.5,0.3L152.1,29.8z"/>
			<polygon class="st7" points="152.1,32.6 153,28.9 155,28.9 154.9,29.4 153.5,29.4 153.2,30.4 154.7,30.4 154.5,30.9 153.1,30.9 
				152.8,32.1 154.2,32.1 154.1,32.6 			"/>
			<polygon class="st6" points="140.5,27 136.4,27 142,6.7 146.1,6.7 			"/>
			<path class="st6" d="M138.4,7.4c-0.3-0.4-0.7-0.6-1.3-0.6h-22.3l-1.1,4h4l0,0h16.2l-1.2,4.3h-16.2l0,0h-4l-3.4,12.1h4.1l2.3-8.1
				h18.2c0.6,0,1.1-0.2,1.6-0.6c0.5-0.4,0.8-0.9,1-1.4l2.3-8.1C138.7,8.2,138.6,7.7,138.4,7.4"/>
			<path class="st6" d="M106.8,25.8c-0.2,0.8-1,1.4-1.8,1.4H84.1c-0.6,0-1-0.2-1.3-0.6c-0.3-0.4-0.3-0.9-0.2-1.4l5.1-18.3h4.1
				l-4.5,16.3h16.2l4.6-16.4h4.1L106.8,25.8z"/>
			<polygon class="st8" points="153.1,6.7 158.2,16.9 147.4,27.1 			"/>
			<polygon class="st9" points="149.5,6.8 154.6,16.9 143.8,27.1 			"/>
			<g>
				<rect x="76.3" y="6.9" class="st10" width="0.8" height="20.2"/>
			</g>
		</g>
		<g>
			<g>
				<path class="st11" d="M487.9,27.1v-6.5c0-1.6-0.6-2.4-2.1-2.4c-0.6,0-1.3,0.1-1.7,0.2v9.5c0,0.3-0.3,0.6-0.6,0.6h-2.3
					c-0.3,0-0.6-0.3-0.6-0.6V16.8c0-0.4,0.3-0.7,0.6-0.8c1.5-0.5,3-0.8,4.6-0.8c3.6,0,5.6,1.9,5.6,5.4V28c0,0.3-0.3,0.6-0.6,0.6
					h-1.4C488.5,28.6,487.9,27.9,487.9,27.1z"/>
				<path class="st11" d="M498.6,15.1c-3.4,0-5.4,1.9-5.4,5V24c0,1.5,0.6,2.7,1.6,3.6c1,0.8,2.3,1.2,3.9,1.2c1.4,0,2.7-0.3,3.8-0.9
					c0.4-0.2,0.7-0.7,0.7-1.2c0-0.3-0.2-0.7-0.4-1c0,0-0.2-0.3-0.3-0.4c-0.1-0.1-0.2-0.2-0.4-0.2c-0.1,0-0.2,0.1-0.3,0.1
					c-1,0.5-1.9,0.8-2.9,0.8c-1.3,0-2.1-0.7-2.1-1.9l0.1-0.9v-0.1h6.3c0.3,0,0.6-0.3,0.6-0.6v-2.4C503.8,16.9,501.9,15.1,498.6,15.1
					z M500.6,21h-3.8v-1c0-1.3,0.7-2,1.9-2s1.9,0.8,1.9,2L500.6,21L500.6,21z"/>
				<path class="st11" d="M524,15.1c-3.4,0-5.4,1.9-5.4,5V24c0,1.5,0.6,2.7,1.6,3.6c1,0.8,2.3,1.2,3.9,1.2c1.4,0,2.7-0.3,3.8-0.9
					c0.4-0.2,0.7-0.7,0.7-1.2c0-0.3-0.2-0.7-0.4-1c0,0-0.2-0.3-0.3-0.4c-0.1-0.1-0.2-0.2-0.4-0.2c-0.1,0-0.2,0.1-0.3,0.1
					c-1,0.5-1.9,0.8-2.9,0.8c-1.3,0-2.1-0.7-2.1-1.9l0.1-0.9v-0.1h6.3c0.3,0,0.6-0.3,0.6-0.6v-2.4C529.2,16.9,527.3,15.1,524,15.1z
					 M526,21h-3.8v-1c0-1.3,0.7-2,1.9-2s1.9,0.8,1.9,2L526,21L526,21z"/>
				<path class="st11" d="M463.4,28.6h1.4c0.3,0,0.6-0.3,0.6-0.6v-7.4c0-3.4-1.8-5.4-4.8-5.4c-0.9,0-1.9,0.2-2.5,0.4v-3.7
					c0-0.8-0.7-1.5-1.5-1.5h-1.4c-0.3,0-0.6,0.3-0.6,0.6v17c0,0.3,0.3,0.6,0.6,0.6h2.3c0.3,0,0.6-0.3,0.6-0.6v-9.4
					c0.5-0.2,1.2-0.3,1.7-0.3c1.5,0,2.1,0.7,2.1,2.4v6.5C462,27.9,462.6,28.6,463.4,28.6L463.4,28.6z"/>
				<path class="st11" d="M472.9,15.2c-3.5,0-5.6,1.9-5.6,5v3.7c0,3.1,2.2,5,5.6,5c3.5,0,5.6-1.9,5.6-5v-3.7
					C478.5,17.1,476.4,15.2,472.9,15.2z M475,23.9c0,1.2-0.7,1.9-2,1.9s-2-0.7-2-1.9v-3.7c0-1.3,0.7-2,2-2s2,0.8,2,2V23.9z"/>
				<path class="st11" d="M446.6,10.5c-1.6,0-3.1,0.3-4.6,0.8c-0.3,0.1-0.6,0.4-0.6,0.8V28c0,0.3,0.3,0.6,0.6,0.6h2.3
					c0.3,0,0.6-0.3,0.6-0.6v-4.5c0.7,0.3,1.4,0.4,2.2,0.4c3.2,0,5.6-2.2,5.6-5.4v-2.4C452.7,12.7,450.2,10.5,446.6,10.5z
					 M449.2,18.4c0,1.5-1.1,2.4-2.6,2.4h-0.1h-0.1h-0.1c-0.8,0-1.3-0.3-1.3-0.3v-6.7c0,0,0.5-0.3,1.3-0.3h0.1h0.1h0.1
					c0.7,0,1.4,0.2,1.9,0.6s0.7,1,0.7,1.8V18.4z"/>
				<path class="st11" d="M511.2,10.5c-1.6,0-3.1,0.3-4.6,0.8c-0.3,0.1-0.6,0.4-0.6,0.8V28c0,0.3,0.3,0.6,0.6,0.6h2.3
					c0.3,0,0.6-0.3,0.6-0.6v-4.5c0.7,0.3,1.4,0.4,2.2,0.4c3.2,0,5.6-2.2,5.6-5.4v-2.4C517.3,12.7,514.8,10.5,511.2,10.5z
					 M513.8,18.4c0,1.5-1.1,2.4-2.6,2.4h-0.1H511h-0.1c-0.8,0-1.3-0.3-1.3-0.3v-6.7c0,0,0.5-0.3,1.3-0.3h0.1h0.1h0.1
					c0.7,0,1.4,0.2,1.9,0.6s0.7,1,0.7,1.8V18.4z"/>
			</g>
			<g>
				<path class="st11" d="M416.9,16.9v6.2c-0.5,0.3-1.2,0.4-1.8,0.4c-1.4,0-2.1-0.7-2.1-2.3v-4.3C413,16.9,416.9,16.9,416.9,16.9z"
					/>
				<path class="st11" d="M415.3,3.7c-8.8,0-15.9,7.1-15.9,15.9s7.1,15.9,15.9,15.9s15.9-7.1,15.9-15.9
					C431.3,10.8,424.1,3.7,415.3,3.7z M422.6,16.4c0,0.3-0.2,0.4-0.4,0.4h-2v12.7c0,0.3-0.3,0.5-0.5,0.5h-1.2
					c-0.8,0-1.4-0.6-1.4-1.4v-2.8c-0.9,0.4-1.6,0.4-2.5,0.4c-2.8,0-4.5-1.9-4.5-5.1v-4.3h-1.2c-0.6,0-1.2-0.5-1.2-1.2v-0.9
					c0-0.3,0.2-0.4,0.4-0.4h8.1l-5.3-5.1c-0.2-0.2-0.1-0.5,0.2-0.6l1.7-0.5c0.7-0.2,1.4,0,1.9,0.5l4.9,5.6h2.1
					c0.6,0,1.2,0.5,1.2,1.2v1H422.6z"/>
			</g>
		</g>
		<g>
			<path class="st12" d="M333.2,19.2v10.4h-3.3V4h8.7c2.1,0,4.1,0.8,5.7,2.2c1.5,1.4,2.4,3.3,2.3,5.4c0,2.1-0.8,4-2.3,5.4
				c-1.5,1.4-3.4,2.2-5.6,2.2H333.2z M333.2,7.1V16h5.5c1.2,0,2.4-0.4,3.2-1.3c1.7-1.7,1.8-4.4,0.1-6.2l-0.1-0.1
				c-0.8-0.9-2-1.4-3.2-1.3H333.2z M354.1,11.5c2.4,0,4.3,0.7,5.8,1.9c1.4,1.3,2.1,3.1,2.1,5.3v10.8h-3.1v-2.4h-0.1
				c-1.4,2-3.2,3-5.4,3c-1.9,0-3.5-0.6-4.8-1.7c-1.3-1.1-2-2.6-1.9-4.3c0-1.8,0.7-3.2,2.1-4.3s3.2-1.6,5.5-1.6c2,0,3.5,0.4,4.8,1.1
				v-0.8c0-1.1-0.5-2.2-1.3-2.9c-0.9-0.8-2-1.2-3.2-1.2c-1.8,0-3.3,0.8-4.4,2.3l-2.9-1.8C348.7,12.7,351,11.5,354.1,11.5L354.1,11.5
				z M349.9,24.2c0,0.9,0.4,1.7,1.1,2.1c0.7,0.6,1.6,0.9,2.5,0.9c1.4,0,2.7-0.6,3.7-1.5c1.1-1,1.6-2.2,1.6-3.6
				c-1-0.8-2.4-1.2-4.3-1.2c-1.3,0-2.4,0.3-3.3,1C350.4,22.5,349.9,23.3,349.9,24.2z M380,12.1l-11,25.2h-3.4l4.1-8.8l-7.2-16.4h3.6
				l5.2,12.6h0.1l5.1-12.6H380z"/>
			<path class="st13" d="M319.9,17c0-1-0.1-2-0.2-3h-13.9v5.7h7.9c-0.3,1.8-1.4,3.4-2.9,4.5v3.7h4.7C318.3,25.2,319.9,21.5,319.9,17
				L319.9,17z"/>
			<path class="st14" d="M305.8,31.3c4,0,7.3-1.3,9.7-3.5l-4.7-3.7c-1.3,0.9-3,1.4-5,1.4c-3.8,0-7.1-2.6-8.2-6.1h-4.9v3.8
				C295.2,28.2,300.2,31.3,305.8,31.3z"/>
			<path class="st15" d="M297.5,19.5c-0.6-1.8-0.6-3.8,0-5.6v-3.8h-4.9c-2.1,4.1-2.1,9,0,13.2L297.5,19.5z"/>
			<path class="st16" d="M305.8,7.8c2.1,0,4.1,0.8,5.6,2.2l4.2-4.2c-2.7-2.5-6.2-3.9-9.8-3.8c-5.5,0-10.6,3.1-13.1,8.1l4.9,3.8
				C298.7,10.4,301.9,7.8,305.8,7.8z"/>
		</g>
	</g>
</g>
<g id="Layer_1_copy">
	<g>
		<g id="layer1_2_">
			<g id="g52_2_" transform="matrix(0.35277777,0,0,-0.35277777,16.777056,1.5610286)">
				<path id="path54_2_" class="st2" d="M857.3-28.6c-2.3,6.5-8.4,11.1-15.6,11.1h-0.2c-4.7,0-8.9-2-11.9-5.1
					c-3,3.1-7.3,5.1-11.9,5.1h-0.2c-4.1,0-7.9-1.5-10.8-4v1.3c-0.1,1.3-1.1,2.3-2.4,2.3h-11.1c-1.4,0-2.5-1.1-2.5-2.5v-60.2
					c0-1.4,1.1-2.5,2.5-2.5h11.1c1.2,0,2.3,0.9,2.4,2.1v43.2c0,0.2,0,0.3,0,0.4c0.2,1.9,1.6,3.5,3.8,3.7h0.4h1.2h0.5
					c0.9-0.1,1.7-0.4,2.3-0.9c1-0.8,1.5-1.9,1.5-3.2v-43c0-1.4,1.1-2.5,2.5-2.5H830c1.3,0,2.4,1,2.4,2.3v43.2c0,1.4,0.7,2.7,1.8,3.5
					c0.6,0.4,1.3,0.6,2,0.7h0.4h1.2h0.5c2.4-0.2,3.8-2,3.8-4.1v-42.9c0-1.4,1.1-2.5,2.5-2.5h11.1c1.4,0,2.5,1.1,2.5,2.5v46.2
					C858.1-31.3,857.8-29.9,857.3-28.6"/>
			</g>
			<g id="g56_2_" transform="matrix(0.35277777,0,0,-0.35277777,11.699676,0.85374862)">
				<path id="path58_2_" class="st2" d="M796.6-20.1h-6.3v10.3l0,0l0,0c0,1.2-1,2.2-2.2,2.2c-0.1,0-0.3,0-0.4,0
					c-7-1.9-5.6-11.7-18.5-12.5h-0.3h-1c-0.2,0-0.4,0-0.5-0.1l0,0l0,0c-1.1-0.2-1.9-1.2-1.9-2.4v-11.1c0-1.4,1.1-2.5,2.5-2.5h6.7
					v-47c0-1.3,1.1-2.4,2.4-2.4h11c1.3,0,2.4,1.1,2.4,2.4v47h6.2c1.4,0,2.5,1.1,2.5,2.5v11.1C799.1-21.2,798-20.1,796.6-20.1"/>
			</g>
			<g id="g60_2_" transform="matrix(0.35277777,0,0,-0.35277777,9.0012361,0.85374862)">
				<path id="path62_2_" class="st3" d="M764.4-20.1h-11.1c-1.4,0-2.4-1.1-2.4-2.5v-22.9c0-1.4-1.2-2.6-2.6-2.6h-4.6
					c-1.4,0-2.6,1.2-2.6,2.6v22.9c0,1.4-1.1,2.5-2.5,2.5h-11.1c-1.4,0-2.5-1.1-2.5-2.5v-25.1c0-9.5,6.8-16.3,16.4-16.3
					c0,0,7.2,0,7.4,0c1.3-0.1,2.3-1.2,2.3-2.6c0-1.3-1-2.4-2.3-2.6c-0.1,0-0.1,0-0.2,0l-16.2-0.1c-1.4,0-2.5-1.1-2.5-2.5v-11.1
					c0-1.4,1.1-2.5,2.5-2.5h18.1c9.6,0,16.4,6.8,16.4,16.3v46.4C766.8-21.2,765.7-20.1,764.4-20.1"/>
			</g>
			<g id="g64_2_" transform="matrix(0.35277777,0,0,-0.35277777,1.7417071,2.2279886)">
				<path id="path66_2_" class="st3" d="M677.7-36.5v-5.2v-1.7c0-1.4-1.2-2.6-2.6-2.6h-7v13.7h7c1.4,0,2.6-1.2,2.6-2.6V-36.5z
					 M678.6-16.2h-24.2c-1.3,0-2.4-1.1-2.4-2.4v-10.9c0,0,0,0,0-0.1s0-0.1,0-0.2v-34.8v-14.3c0-1.3,1-2.4,2.2-2.5h0.2h11.1
					c1.4,0,2.5,1.1,2.5,2.5v16.8h10.6c8.9,0,15.1,6.2,15.1,15.1v15.7C693.7-22.4,687.5-16.2,678.6-16.2"/>
			</g>
			<g id="g68_2_" transform="matrix(0.35277777,0,0,-0.35277777,4.8535941,3.9887686)">
				<path id="path70_2_" class="st3" d="M714.8-57.6v-1.7c0-0.1,0-0.3,0-0.4s-0.1-0.2-0.1-0.4c-0.3-1-1.3-1.7-2.5-1.7h-4.6
					c-1.4,0-2.6,1.1-2.6,2.4v2.1v0.1v5.6l0,0v0.6v1.1l0,0c0,1.3,1.2,2.4,2.6,2.4h4.6c1.4,0,2.6-1.1,2.6-2.4V-57.6z M713.1-11.3
					h-15.4c-1.4,0-2.5-1-2.5-2.3v-4.3V-18v-0.1V-24c0-1.3,1.2-2.4,2.6-2.4h14.7c1.2-0.2,2.1-1,2.2-2.3v-1.4c-0.1-1.3-1-2.2-2.1-2.3
					h-7.3c-9.6,0-16.5-6.4-16.5-15.4v-12.6v-0.3c0-8.9,5.9-15.3,15.5-15.3h20.1c3.6,0,6.5,2.7,6.5,6.1v42.1
					C730.9-17.7,725.6-11.3,713.1-11.3"/>
			</g>
		</g>
		<g>
			<polygon class="st4" points="114.9,6.5 120.6,16.9 108.7,27.2 			"/>
			<polygon class="st5" points="111,6.5 116.6,16.9 104.8,27.2 			"/>
			<path class="st6" d="M30.6,21.5c-0.4,0.8-1.3,1.4-2.4,1.6h-0.8H12.3l1.3-4.2h11.7h3.6h0.8c0.6,0.1,1,0.6,1.2,1.1
				c0,0.1,0,0.2,0,0.4c0,0.1,0,0.1,0,0.2v0.1L30.6,21.5z M16.1,10.6h11.7h3.7h0.8c0.4,0.1,0.8,0.4,1,0.7c0.1,0.2,0.1,0.5,0.1,0.8
				c0,0.1,0,0.3,0,0.4v0.1l-0.3,0.6c-0.4,0.9-1.3,1.6-2.4,1.7H30H14.8L16.1,10.6z M32.9,26.5c0.6-0.4,0.9-0.9,1.1-1.5l1.9-6.2
				c0.2-0.6,0.1-1-0.2-1.4c-0.3-0.4-0.8-0.6-1.4-0.6c0.6,0,1.2-0.2,1.8-0.6c0.6-0.4,0.9-0.9,1.1-1.4l1.9-6.2
				c0.2-0.6,0.1-1.1-0.2-1.5c-0.3-0.4-0.8-0.6-1.4-0.6H12.8L6.6,27h24.5C31.7,27.1,32.3,26.9,32.9,26.5"/>
			<polygon class="st6" points="64.6,6.6 62.2,14.9 44.5,14.9 46.9,6.6 42.5,6.6 36.4,27.1 40.8,27.1 43.3,18.9 61,18.9 58.5,27.1 
				62.9,27.1 69,6.6 			"/>
			<polygon class="st6" points="70.3,27.1 65.9,27.1 72,6.7 76.5,6.7 			"/>
			<polygon class="st6" points="107.2,6.7 88.9,21 82.5,11.2 79.5,6.7 79.4,6.7 78,11.3 73.3,27 77.7,27 81,16 88,27.1 99.6,17.3 
				96.7,27 101.1,27 105.4,12.7 			"/>
			<path class="st6" d="M6.3,30.9h0.2c0.3,0,0.5,0,0.6-0.1s0.2-0.2,0.3-0.3c0-0.2,0-0.3-0.1-0.3c-0.1-0.1-0.3-0.1-0.6-0.1H6.5
				L6.3,30.9z M5.9,32.2h0.2c0.2,0,0.3,0,0.5,0c0.1,0,0.2,0,0.3-0.1C7,32.1,7,32,7.1,31.9c0.1-0.1,0.1-0.1,0.1-0.2
				c0-0.1,0-0.2,0-0.3S7.1,31.3,7,31.2c-0.1,0-0.1,0-0.2-0.1c-0.1,0-0.2,0-0.3,0H6.3H6.1L5.9,32.2z M5.3,32.6l0.8-3H7
				c0.2,0,0.4,0,0.5,0s0.2,0.1,0.3,0.1C7.9,29.8,8,29.9,8,30s0,0.2,0,0.4s-0.1,0.3-0.2,0.4C7.7,30.9,7.5,31,7.4,31
				c0.2,0,0.3,0.1,0.4,0.2c0.1,0.1,0.1,0.3,0,0.5c0,0.1-0.1,0.2-0.2,0.3c-0.1,0.1-0.2,0.2-0.3,0.3s-0.2,0.1-0.4,0.2
				c-0.1,0-0.4,0-0.7,0L5.3,32.6L5.3,32.6z"/>
			<polygon class="st6" points="9.5,32.6 10.3,29.6 10.9,29.6 10.6,30.7 12.3,30.7 12.6,29.6 13.2,29.6 12.4,32.6 11.8,32.6 
				12.2,31.1 10.5,31.1 10.1,32.6 			"/>
			<path class="st6" d="M15.7,31.4h1l-0.2-0.7c0,0,0-0.1,0-0.2c0-0.1,0-0.1,0-0.2c0,0.1-0.1,0.1-0.1,0.2c0,0.1-0.1,0.1-0.1,0.2
				L15.7,31.4z M16.9,32.6l-0.2-0.8h-1.4l-0.6,0.8h-0.6l2.5-3.1l0.9,3.1H16.9z"/>
			<path class="st6" d="M20.4,30.9L20.4,30.9c0.4,0,0.6,0,0.7-0.1s0.2-0.2,0.2-0.3c0-0.2,0-0.3-0.1-0.4C21.1,30,20.9,30,20.6,30
				h-0.1L20.4,30.9z M20.2,31.3l-0.4,1.4h-0.5l0.8-3h0.8c0.2,0,0.4,0,0.5,0s0.2,0.1,0.3,0.1c0.1,0.1,0.1,0.2,0.2,0.3
				c0,0.1,0,0.2,0,0.4c-0.1,0.2-0.2,0.4-0.3,0.6c-0.2,0.1-0.4,0.2-0.7,0.2l0.8,1.4h-0.6L20.2,31.3L20.2,31.3z"/>
			<path class="st6" d="M24.6,31.4h1l-0.2-0.7c0,0,0-0.1,0-0.2c0-0.1,0-0.1,0-0.2c0,0.1-0.1,0.1-0.1,0.2c0,0.1-0.1,0.1-0.1,0.2
				L24.6,31.4z M25.8,32.6l-0.2-0.8h-1.4l-0.6,0.8h-0.5l2.5-3.1l0.9,3.1H25.8z"/>
			<polygon class="st6" points="29.8,30 29.1,32.6 28.5,32.6 29.2,30 28.3,30 28.4,29.6 30.8,29.6 30.7,30 			"/>
			<polygon class="st6" points="34.9,32.6 35.7,29.6 36.2,29.6 35.4,32.6 			"/>
			<path class="st6" d="M37.7,32.6l0.8-3.1l1.7,1.8c0,0.1,0.1,0.1,0.1,0.2c0,0.1,0.1,0.1,0.1,0.2l0.5-2.1h0.5l-0.8,3.1l-1.5-1.9
				c0-0.1-0.1-0.1-0.1-0.2c0-0.1-0.1-0.1-0.1-0.2l-0.5,2.1h-0.7V32.6z"/>
			<polygon class="st6" points="44.9,30 44.2,32.6 43.7,32.6 44.4,30 43.4,30 43.5,29.6 46,29.6 45.8,30 			"/>
			<polygon class="st6" points="47.1,32.6 47.9,29.6 49.8,29.6 49.7,30 48.3,30 48.1,30.8 49.5,30.8 49.4,31.2 48,31.2 47.8,32.2 
				49.1,32.2 49,32.6 			"/>
			<path class="st6" d="M52.2,30.9L52.2,30.9c0.4,0,0.6,0,0.7-0.1s0.2-0.2,0.2-0.3c0-0.2,0-0.3-0.1-0.4C52.9,30,52.7,30,52.4,30
				h-0.1L52.2,30.9z M52,31.3l-0.4,1.4h-0.5l0.8-3h0.8c0.2,0,0.4,0,0.5,0s0.2,0.1,0.3,0.1c0.1,0.1,0.1,0.2,0.2,0.3
				c0,0.1,0,0.2,0,0.4c-0.1,0.2-0.2,0.4-0.4,0.6c-0.2,0.1-0.4,0.2-0.7,0.2l0.8,1.4h-0.6L52,31.3L52,31.3z"/>
			<polygon class="st6" points="55.3,32.6 56.1,29.6 58.1,29.6 58,30 56.6,30 56.4,30.8 57.8,30.8 57.7,31.2 56.3,31.2 55.9,32.6 
							"/>
			<path class="st6" d="M60.2,31.4h1L61,30.7c0,0,0-0.1,0-0.2c0-0.1,0-0.1,0-0.2c0,0.1-0.1,0.1-0.1,0.2c0,0.1-0.1,0.1-0.1,0.2
				L60.2,31.4z M61.5,32.6l-0.2-0.8h-1.4l-0.6,0.8h-0.6l2.5-3.1l0.9,3.1H61.5z"/>
			<path class="st6" d="M67.2,30.3c-0.1-0.1-0.3-0.2-0.4-0.3c-0.2-0.1-0.3-0.1-0.5-0.1c-0.4,0-0.7,0.1-1,0.3s-0.5,0.5-0.6,0.8
				s0,0.6,0.1,0.8c0.2,0.2,0.4,0.3,0.8,0.3c0.2,0,0.4,0,0.6-0.1s0.4-0.2,0.6-0.3l-0.1,0.6c-0.2,0.1-0.4,0.2-0.6,0.2
				s-0.4,0.1-0.6,0.1c-0.3,0-0.5,0-0.7-0.1s-0.4-0.2-0.5-0.3s-0.2-0.3-0.3-0.5c0-0.2,0-0.4,0-0.6c0.1-0.2,0.2-0.4,0.3-0.6
				c0.1-0.2,0.3-0.4,0.5-0.5s0.4-0.3,0.7-0.3c0.2-0.1,0.5-0.1,0.8-0.1c0.2,0,0.4,0,0.6,0.1c0.2,0,0.3,0.1,0.5,0.2L67.2,30.3z"/>
			<polygon class="st6" points="68.8,32.6 69.6,29.6 71.5,29.6 71.4,30 70,30 69.8,30.8 71.2,30.8 71.1,31.2 69.7,31.2 69.5,32.2 
				70.8,32.2 70.7,32.6 			"/>
			<polygon class="st6" points="75.8,32.6 76.6,29.6 78.5,29.6 78.4,30 77,30 76.8,30.8 78.2,30.8 78.1,31.2 76.7,31.2 76.4,32.6 
							"/>
			<path class="st6" d="M83.2,31.1c0-0.2,0-0.3,0-0.4c0-0.1-0.1-0.3-0.2-0.4c-0.1-0.1-0.2-0.2-0.3-0.2C82.6,30,82.4,30,82.2,30
				s-0.3,0-0.5,0.1s-0.3,0.1-0.5,0.2c-0.1,0.1-0.3,0.2-0.4,0.4c-0.1,0.1-0.2,0.3-0.2,0.4c0,0.2,0,0.3,0,0.4c0,0.1,0.1,0.3,0.2,0.4
				c0.1,0.1,0.2,0.2,0.3,0.2c0.1,0.1,0.3,0.1,0.5,0.1s0.3,0,0.5-0.1s0.3-0.1,0.5-0.2c0.1-0.1,0.3-0.2,0.4-0.4
				C83.1,31.4,83.1,31.3,83.2,31.1 M83.8,31.1c-0.1,0.2-0.2,0.4-0.3,0.6c-0.1,0.2-0.3,0.4-0.5,0.5s-0.4,0.3-0.7,0.3
				c-0.2,0.1-0.5,0.1-0.7,0.1c-0.3,0-0.5,0-0.7-0.1s-0.4-0.2-0.5-0.3c-0.1-0.2-0.2-0.3-0.3-0.5c0-0.2,0-0.4,0-0.6
				c0.1-0.2,0.2-0.4,0.3-0.6c0.1-0.2,0.3-0.4,0.5-0.5s0.4-0.3,0.7-0.3c0.2-0.1,0.5-0.1,0.7-0.1c0.3,0,0.5,0,0.7,0.1s0.4,0.2,0.5,0.3
				c0.1,0.2,0.2,0.3,0.3,0.5C83.8,30.7,83.8,30.9,83.8,31.1"/>
			<path class="st6" d="M86.5,30.9h0.1c0.3,0,0.5,0,0.6-0.1s0.2-0.2,0.2-0.3c0-0.2,0-0.3-0.1-0.4C87.2,30,87,30,86.7,30h-0.1
				L86.5,30.9z M86.4,31.3L86,32.7h-0.5l0.8-3h0.8c0.2,0,0.4,0,0.5,0s0.2,0.1,0.3,0.1c0.1,0.1,0.1,0.2,0.2,0.3c0,0.1,0,0.2,0,0.4
				c-0.1,0.2-0.2,0.4-0.4,0.6c-0.2,0.1-0.4,0.2-0.7,0.2l0.8,1.4h-0.6L86.4,31.3L86.4,31.3z"/>
			<path class="st6" d="M95.9,31.1c0,0,0-0.1,0-0.2c0-0.1,0-0.2,0-0.2c0,0.1-0.1,0.1-0.1,0.2c0,0.1-0.1,0.1-0.2,0.2l-1.3,1.6
				l-0.5-1.6c0-0.1,0-0.1,0-0.2c0-0.1,0-0.1,0-0.2c0,0.1,0,0.1-0.1,0.2c0,0.1-0.1,0.1-0.1,0.2l-0.8,1.5h-0.5l1.6-3.2l0.5,1.9
				c0,0,0,0.1,0,0.2c0,0.1,0,0.2,0,0.3c0.1-0.1,0.1-0.2,0.2-0.3c0,0,0-0.1,0.1-0.1l1.5-1.9v3.2h-0.5v-1.6H95.9z"/>
			<path class="st6" d="M101.7,31.1c0-0.2,0-0.3,0-0.4c0-0.1-0.1-0.3-0.2-0.4c-0.1-0.1-0.2-0.2-0.3-0.2c-0.1-0.1-0.3-0.1-0.5-0.1
				s-0.3,0-0.5,0.1s-0.3,0.1-0.5,0.2c-0.1,0.1-0.3,0.2-0.4,0.4c-0.1,0.1-0.2,0.3-0.2,0.4c0,0.2,0,0.3,0,0.4c0,0.1,0.1,0.3,0.2,0.4
				c0.1,0.1,0.2,0.2,0.3,0.2c0.1,0.1,0.3,0.1,0.5,0.1s0.3,0,0.5-0.1s0.3-0.1,0.5-0.2c0.1-0.1,0.3-0.2,0.4-0.4
				C101.6,31.4,101.7,31.3,101.7,31.1 M102.3,31.1c-0.1,0.2-0.2,0.4-0.3,0.6c-0.1,0.2-0.3,0.4-0.5,0.5s-0.5,0.3-0.7,0.3
				c-0.2,0.1-0.5,0.1-0.7,0.1s-0.5,0-0.7-0.1s-0.4-0.2-0.5-0.3c-0.1-0.2-0.2-0.3-0.3-0.5c0-0.2,0-0.4,0-0.6c0.1-0.2,0.2-0.4,0.3-0.6
				c0.1-0.2,0.3-0.4,0.5-0.5s0.4-0.3,0.7-0.3c0.2-0.1,0.5-0.1,0.7-0.1c0.3,0,0.5,0,0.7,0.1s0.4,0.2,0.5,0.3c0.1,0.2,0.2,0.3,0.3,0.5
				C102.4,30.7,102.3,30.9,102.3,31.1"/>
			<path class="st6" d="M104,32.6l0.8-3.1l1.7,1.8c0,0.1,0.1,0.1,0.1,0.2c0,0.1,0.1,0.1,0.1,0.2l0.5-2.1h0.5l-0.8,3.1l-1.8-1.9
				c0-0.1-0.1-0.1-0.1-0.2c0-0.1-0.1-0.1-0.1-0.2l-0.5,2.1H104V32.6z"/>
			<polygon class="st6" points="109.4,32.6 110.2,29.6 112.1,29.6 112,30 110.7,30 110.5,30.8 111.8,30.8 111.7,31.2 110.3,31.2 
				110.1,32.2 111.5,32.2 111.4,32.6 			"/>
			<path class="st6" d="M114.2,32.6l0.4-1.4l-0.7-1.6h0.6l0.5,1v0.1v0.1l0.1-0.1l0.1-0.1l1-1h0.6l-1.7,1.6l-0.4,1.4H114.2z"/>
			<path class="st7" d="M132.2,28.9h0.6l-0.5,2.2c-0.1,0.3-0.1,0.6,0,0.7s0.3,0.2,0.6,0.2s0.5-0.1,0.7-0.2c0.2-0.2,0.3-0.4,0.4-0.7
				l0.5-2.2h0.6l-0.5,2.3c-0.1,0.5-0.3,0.9-0.6,1.1c-0.3,0.2-0.7,0.4-1.2,0.4s-0.8-0.1-1-0.4c-0.2-0.2-0.2-0.6-0.1-1.1L132.2,28.9z"
				/>
			<path class="st7" d="M135,32.6l0.9-3.8l1.7,2.2c0,0.1,0.1,0.1,0.1,0.2c0,0.1,0.1,0.2,0.1,0.2l0.6-2.5h0.5l-0.9,3.8l-1.8-2.3
				c0-0.1-0.1-0.1-0.1-0.2c0-0.1-0.1-0.1-0.1-0.2l-0.6,2.5L135,32.6L135,32.6z"/>
			<polygon class="st7" points="139,32.6 139.9,28.9 140.5,28.9 139.6,32.6 			"/>
			<polygon class="st7" points="140.4,32.6 141.3,28.9 143.3,28.9 143.2,29.4 141.8,29.4 141.5,30.3 143,30.3 142.8,30.9 
				141.4,30.9 141,32.6 			"/>
			<polygon class="st7" points="143.1,32.6 143.9,28.9 144.5,28.9 143.6,32.6 			"/>
			<polygon class="st7" points="144.5,32.6 145.3,28.9 147.3,28.9 147.2,29.4 145.8,29.4 145.6,30.4 147,30.4 146.9,30.9 
				145.5,30.9 145.2,32.1 146.6,32.1 146.5,32.6 			"/>
			<path class="st7" d="M147.8,32h0.5c0.3,0,0.5,0,0.6-0.1c0.1,0,0.3-0.1,0.4-0.2c0.2-0.1,0.3-0.3,0.4-0.4c0.1-0.2,0.2-0.4,0.2-0.6
				c0.1-0.2,0.1-0.4,0-0.6c0-0.2-0.1-0.3-0.2-0.4c-0.1-0.1-0.2-0.1-0.3-0.2c-0.1,0-0.3-0.1-0.6-0.1h-0.2h-0.2L147.8,32z M147.1,32.6
				l0.9-3.7h0.8c0.5,0,0.9,0,1.1,0.1c0.2,0.1,0.4,0.1,0.5,0.3c0.2,0.2,0.3,0.4,0.3,0.6c0,0.3,0,0.5,0,0.9c-0.1,0.3-0.2,0.6-0.4,0.9
				c-0.2,0.3-0.4,0.5-0.6,0.6c-0.2,0.1-0.4,0.2-0.6,0.3c-0.2,0.1-0.5,0.1-0.9,0.1H148L147.1,32.6L147.1,32.6z"/>
			<path class="st7" d="M153.4,30.5h0.1c0.3,0,0.5,0,0.7-0.1c0.1-0.1,0.2-0.2,0.3-0.4c0-0.2,0-0.3-0.1-0.4c-0.1-0.1-0.3-0.1-0.6-0.1
				h-0.1L153.4,30.5z M153.3,30.9l-0.4,1.6h-0.5l0.9-3.7h0.9c0.3,0,0.4,0,0.6,0c0.1,0,0.2,0.1,0.3,0.1c0.1,0.1,0.2,0.2,0.2,0.3
				s0,0.3,0,0.5s-0.1,0.3-0.2,0.5c-0.1,0.1-0.2,0.3-0.3,0.3c-0.1,0.1-0.2,0.1-0.4,0.1c-0.1,0-0.3,0-0.6,0h-0.1h-0.4V30.9z"/>
			<path class="st7" d="M155.8,31.2h1l-0.2-0.8c0-0.1,0-0.1,0-0.2c0-0.1,0-0.1,0-0.2c0,0.1-0.1,0.2-0.1,0.2c0,0.1-0.1,0.1-0.1,0.2
				L155.8,31.2z M157.1,32.6l-0.2-0.9h-1.4l-0.6,0.9h-0.6l2.6-3.8l0.8,3.8H157.1z"/>
			<path class="st7" d="M158.5,32.6l0.4-1.7l-0.7-2h0.6l0.5,1.2v0.1c0,0.1,0,0.1,0,0.2c0-0.1,0.1-0.1,0.1-0.2c0-0.1,0.1-0.1,0.1-0.1
				l1.1-1.2h0.6l-1.7,2l-0.4,1.7H158.5z"/>
			<path class="st7" d="M164,30.8c0,0,0-0.1,0-0.2c0-0.1,0-0.2,0-0.3c0,0.1-0.1,0.2-0.1,0.3s-0.1,0.2-0.2,0.3l-1.4,1.9l-0.5-2
				c0-0.1,0-0.2,0-0.2c0-0.1,0-0.2,0-0.2c0,0.1,0,0.2-0.1,0.2c0,0.1-0.1,0.2-0.1,0.3l-0.8,1.8h-0.5l1.8-3.8l0.5,2.3c0,0,0,0.1,0,0.2
				c0,0.1,0,0.2,0,0.3c0.1-0.1,0.1-0.2,0.3-0.4l0.1-0.1l1.6-2.3l-0.1,3.8H164V30.8z"/>
			<polygon class="st7" points="165,32.6 165.9,28.9 167.9,28.9 167.7,29.4 166.3,29.4 166.1,30.4 167.5,30.4 167.4,30.9 166,30.9 
				165.7,32.1 167.1,32.1 167,32.6 			"/>
			<path class="st7" d="M167.6,32.6l0.9-3.8l1.7,2.2c0,0.1,0.1,0.1,0.1,0.2c0,0.1,0.1,0.2,0.1,0.2l0.6-2.5h0.5l-0.9,3.8l-1.8-2.3
				c0-0.1-0.1-0.1-0.1-0.2c0-0.1-0.1-0.1-0.1-0.2l-0.6,2.5L167.6,32.6L167.6,32.6z"/>
			<polygon class="st7" points="173.6,29.4 172.8,32.6 172.2,32.6 173,29.4 172,29.4 172.2,28.9 174.6,28.9 174.5,29.4 			"/>
			<path class="st7" d="M174.2,31.9l0.5-0.2c0,0.2,0.1,0.3,0.2,0.4c0.1,0.1,0.2,0.1,0.4,0.1s0.3,0,0.4-0.1c0.1-0.1,0.2-0.2,0.2-0.4
				c0.1-0.2-0.1-0.4-0.4-0.6c0,0-0.1,0-0.1-0.1c-0.3-0.2-0.6-0.4-0.7-0.5c-0.1-0.2-0.1-0.4-0.1-0.6c0.1-0.3,0.2-0.5,0.5-0.7
				c0.2-0.2,0.5-0.3,0.8-0.3s0.5,0.1,0.6,0.2c0.2,0.1,0.2,0.3,0.3,0.4l-0.5,0.2c0-0.1-0.1-0.2-0.2-0.3c-0.1-0.1-0.2-0.1-0.3-0.1
				c-0.2,0-0.3,0-0.4,0.1c-0.1,0.1-0.2,0.2-0.2,0.3c-0.1,0.2,0.1,0.4,0.5,0.6h0.1c0.3,0.2,0.5,0.3,0.6,0.5s0.1,0.4,0.1,0.6
				c-0.1,0.3-0.3,0.6-0.5,0.8c-0.3,0.2-0.6,0.3-0.9,0.3c-0.3,0-0.5-0.1-0.7-0.2C174.2,32.3,174.2,32.1,174.2,31.9"/>
			<polygon class="st7" points="178.4,32.6 179.3,28.9 179.9,28.9 179,32.6 			"/>
			<path class="st7" d="M179.9,32.6l0.9-3.8l1.7,2.2c0,0.1,0.1,0.1,0.1,0.2c0,0.1,0.1,0.2,0.1,0.2l0.6-2.5h0.5l-0.9,3.8l-1.8-2.3
				c0-0.1-0.1-0.1-0.1-0.2c0-0.1-0.1-0.1-0.1-0.2l-0.6,2.5L179.9,32.6L179.9,32.6z"/>
			<polygon class="st7" points="185.8,29.4 185,32.6 184.4,32.6 185.2,29.4 184.2,29.4 184.4,28.9 186.8,28.9 186.7,29.4 			"/>
			<polygon class="st7" points="186.4,32.6 187.3,28.9 189.3,28.9 189.1,29.4 187.7,29.4 187.5,30.4 188.9,30.4 188.8,30.9 
				187.4,30.9 187.1,32.1 188.5,32.1 188.4,32.6 			"/>
			<path class="st7" d="M190.1,30.5h0.1c0.3,0,0.5,0,0.6-0.1s0.2-0.2,0.2-0.4s0-0.3-0.1-0.4c-0.1-0.1-0.3-0.1-0.6-0.1h-0.1
				L190.1,30.5z M190,31l-0.4,1.6h-0.5l0.9-3.7h0.8c0.2,0,0.4,0,0.5,0s0.2,0.1,0.3,0.2c0.1,0.1,0.1,0.2,0.2,0.3c0,0.1,0,0.3,0,0.5
				c-0.1,0.3-0.2,0.5-0.4,0.7s-0.4,0.3-0.7,0.3l0.8,1.7h-0.7L190,31L190,31z"/>
			<polygon class="st7" points="191.8,32.6 192.7,28.9 194.7,28.9 194.6,29.4 193.2,29.4 193,30.3 194.4,30.3 194.2,30.9 
				192.8,30.9 192.4,32.6 			"/>
			<path class="st7" d="M195.4,31.2h1l-0.2-0.8c0-0.1,0-0.1,0-0.2c0-0.1,0-0.1,0-0.2c0,0.1-0.1,0.2-0.1,0.2c0,0.1-0.1,0.1-0.1,0.2
				L195.4,31.2z M196.6,32.6l-0.2-0.9H195l-0.6,0.9h-0.6l2.6-3.8l0.8,3.8H196.6z"/>
			<path class="st7" d="M201,29.8c-0.1-0.1-0.3-0.3-0.4-0.3c-0.2-0.1-0.3-0.1-0.5-0.1c-0.4,0-0.7,0.1-1,0.4c-0.3,0.3-0.5,0.6-0.6,1
				s-0.1,0.7,0.1,1c0.2,0.3,0.4,0.4,0.8,0.4c0.2,0,0.4,0,0.6-0.1c0.2-0.1,0.4-0.2,0.6-0.3l-0.2,0.7c-0.2,0.1-0.4,0.2-0.6,0.3
				c-0.2,0.1-0.4,0.1-0.6,0.1c-0.3,0-0.5,0-0.7-0.1s-0.4-0.2-0.5-0.4s-0.2-0.4-0.3-0.6c0-0.2,0-0.5,0-0.8c0.1-0.3,0.2-0.5,0.3-0.8
				c0.2-0.2,0.3-0.4,0.6-0.6c0.2-0.2,0.5-0.3,0.7-0.4c0.3-0.1,0.5-0.1,0.8-0.1c0.2,0,0.4,0,0.6,0.1c0.2,0.1,0.3,0.2,0.5,0.3
				L201,29.8z"/>
			<polygon class="st7" points="201.1,32.6 202,28.9 203.9,28.9 203.8,29.4 202.4,29.4 202.2,30.4 203.6,30.4 203.5,30.9 
				202.1,30.9 201.8,32.1 203.2,32.1 203.1,32.6 			"/>
			<polygon class="st6" points="189.4,27 185.4,27 191,6.7 195,6.7 			"/>
			<path class="st6" d="M187.3,7.4C187,7,186.6,6.8,186,6.8h-22.3l-1.1,4h4l0,0h16.2l-1.2,4.3h-16.2l0,0h-4l-3.3,12h4.1l2.3-8.1
				h18.2c0.6,0,1.1-0.2,1.6-0.6c0.5-0.4,0.8-0.9,1-1.4l2.3-8.1C187.6,8.2,187.6,7.7,187.3,7.4"/>
			<path class="st6" d="M155.7,25.8c-0.2,0.8-1,1.4-1.8,1.4h-20.8c-0.6,0-1-0.2-1.3-0.6c-0.3-0.4-0.3-0.9-0.2-1.4l5.1-18.3h4.1
				l-4.6,16.3h16.2L157,6.8h4.1L155.7,25.8z"/>
			<polygon class="st8" points="202,6.7 207.1,16.9 196.4,27.1 			"/>
			<polygon class="st9" points="198.4,6.8 203.5,16.9 192.8,27.1 			"/>
			<g>
				<rect x="125.3" y="6.9" class="st10" width="0.8" height="20.2"/>
			</g>
		</g>
		<g>
			<path class="st11" d="M465.8,16.9v6.2c-0.5,0.3-1.2,0.4-1.8,0.4c-1.4,0-2.1-0.7-2.1-2.3v-4.3C461.9,16.9,465.8,16.9,465.8,16.9z"
				/>
			<path class="st11" d="M464.3,3.7c-8.8,0-15.9,7.1-15.9,15.9s7.1,15.9,15.9,15.9s15.9-7.1,15.9-15.9
				C480.2,10.8,473.1,3.7,464.3,3.7z M471.5,16.4c0,0.3-0.2,0.4-0.4,0.4h-2v12.7c0,0.3-0.3,0.5-0.5,0.5h-1.2c-0.8,0-1.4-0.6-1.4-1.4
				v-2.8c-0.9,0.4-1.6,0.4-2.5,0.4c-2.8,0-4.5-1.9-4.5-5.1v-4.3h-1.2c-0.6,0-1.2-0.5-1.2-1.2v-0.9c0-0.3,0.2-0.4,0.4-0.4h8.1
				l-5.3-5.1c-0.2-0.2-0.1-0.5,0.2-0.6l1.7-0.5c0.7-0.2,1.4,0,1.9,0.5l4.9,5.6h2.1c0.6,0,1.2,0.5,1.2,1.2v1H471.5z"/>
		</g>
		<g>
			<path class="st12" d="M382.1,19.2v10.4h-3.3V4h8.7c2.1,0,4.1,0.8,5.7,2.2c1.5,1.4,2.4,3.3,2.3,5.4c0,2.1-0.8,4-2.3,5.4
				c-1.5,1.4-3.4,2.2-5.6,2.2H382.1z M382.1,7.1V16h5.5c1.2,0,2.4-0.4,3.2-1.3c1.7-1.7,1.8-4.4,0.1-6.2l-0.1-0.1
				c-0.8-0.9-2-1.4-3.2-1.3H382.1z M403.1,11.5c2.4,0,4.3,0.7,5.8,1.9c1.4,1.3,2.1,3.1,2.1,5.3v10.8h-3.1v-2.4h-0.1
				c-1.4,2-3.2,3-5.4,3c-1.9,0-3.5-0.6-4.8-1.7c-1.3-1.1-2-2.6-1.9-4.3c0-1.8,0.7-3.2,2.1-4.3s3.2-1.6,5.5-1.6c2,0,3.5,0.4,4.8,1.1
				v-0.8c0-1.1-0.5-2.2-1.3-2.9c-0.9-0.8-2-1.2-3.2-1.2c-1.8,0-3.3,0.8-4.4,2.3l-2.9-1.8C397.6,12.7,400,11.5,403.1,11.5L403.1,11.5
				z M398.9,24.2c0,0.9,0.4,1.7,1.1,2.1c0.7,0.6,1.6,0.9,2.5,0.9c1.4,0,2.7-0.6,3.7-1.5c1.1-1,1.6-2.2,1.6-3.6
				c-1-0.8-2.4-1.2-4.3-1.2c-1.3,0-2.4,0.3-3.3,1C399.3,22.5,398.9,23.3,398.9,24.2z M429,12.1l-11,25.2h-3.4l4.1-8.8l-7.2-16.4h3.6
				l5.2,12.6h0.1l5.1-12.6H429z"/>
			<path class="st13" d="M368.8,17c0-1-0.1-2-0.2-3h-13.9v5.7h7.9c-0.3,1.8-1.4,3.4-2.9,4.5v3.7h4.7C367.2,25.2,368.8,21.5,368.8,17
				L368.8,17z"/>
			<path class="st14" d="M354.7,31.3c4,0,7.3-1.3,9.7-3.5l-4.7-3.7c-1.3,0.9-3,1.4-5,1.4c-3.8,0-7.1-2.6-8.2-6.1h-4.9v3.8
				C344.1,28.2,349.2,31.3,354.7,31.3z"/>
			<path class="st15" d="M346.5,19.5c-0.6-1.8-0.6-3.8,0-5.6v-3.8h-4.9c-2.1,4.1-2.1,9,0,13.2L346.5,19.5z"/>
			<path class="st16" d="M354.7,7.8c2.1,0,4.1,0.8,5.6,2.2l4.2-4.2c-2.7-2.5-6.2-3.9-9.8-3.8c-5.5,0-10.6,3.1-13.1,8.1l4.9,3.8
				C347.7,10.4,350.9,7.8,354.7,7.8z"/>
		</g>
	</g>
</g>
</svg>
